<?xml version="1.0" encoding="utf-8"?>
<!-- Generator: Adobe Illustrator 16.0.4, SVG Export Plug-In . SVG Version: 6.00 Build 0)  -->
<!DOCTYPE svg PUBLIC "-//W3C//DTD SVG 1.1//EN" "http://www.w3.org/Graphics/SVG/1.1/DTD/svg11.dtd">
<svg version="1.1"
	 id="svg2" xmlns:inkscape="http://www.inkscape.org/namespaces/inkscape" xmlns:dc="http://purl.org/dc/elements/1.1/" xmlns:cc="http://creativecommons.org/ns#" xmlns:svg="http://www.w3.org/2000/svg" xmlns:rdf="http://www.w3.org/1999/02/22-rdf-syntax-ns#"
	 xmlns="http://www.w3.org/2000/svg" xmlns:xlink="http://www.w3.org/1999/xlink" x="0px" y="0px" width="95px" height="91px"
	 viewBox="-119.65 -200.097 95 91" enable-background="new -119.65 -200.097 95 91" xml:space="preserve">
<path id="path24" inkscape:connector-curvature="0" d="M-55.909-155.027c-0.535-10.397-8.253-16.65-17.573-16.65h-0.353
	c-10.756,0-16.721,8.459-16.721,18.068c0,10.757,7.217,17.554,16.68,17.554c10.55,0,17.488-7.729,17.99-16.871L-55.909-155.027z
	 M-73.781-180.981c7.188,0,13.946,3.177,18.906,8.151v0.019c0-2.388,1.607-4.188,3.839-4.188l0.564-0.003
	c3.489,0,4.206,3.301,4.206,4.347l0.018,37.129c-0.247,2.432,2.508,3.687,4.036,2.127c5.962-6.127,13.094-31.497-3.707-46.196
	c-15.658-13.704-36.667-11.446-47.841-3.744c-11.877,8.191-19.479,26.324-12.095,43.354c8.048,18.575,31.078,24.115,44.765,18.587
	c6.932-2.796,10.133,6.573,2.934,9.634c-10.876,4.632-41.149,4.165-55.292-20.331c-9.554-16.542-9.046-45.645,16.295-60.724
	c19.385-11.537,44.944-8.345,60.356,7.751c16.11,16.828,15.17,48.338-0.544,60.586c-7.119,5.565-17.693,0.15-17.626-7.96
	l-0.073-2.651c-4.958,4.919-11.554,7.789-18.742,7.789c-14.201,0-26.696-12.492-26.696-26.693
	C-100.477-168.34-87.982-180.981-73.781-180.981L-73.781-180.981"/>
</svg>
