<?xml version="1.0" encoding="UTF-8" standalone="no"?>
<!-- Generator: Adobe Illustrator 19.1.0, SVG Export Plug-In . SVG Version: 6.00 Build 0)  -->
<svg
   xmlns:dc="http://purl.org/dc/elements/1.1/"
   xmlns:cc="http://creativecommons.org/ns#"
   xmlns:rdf="http://www.w3.org/1999/02/22-rdf-syntax-ns#"
   xmlns:svg="http://www.w3.org/2000/svg"
   xmlns="http://www.w3.org/2000/svg"
   xmlns:sodipodi="http://sodipodi.sourceforge.net/DTD/sodipodi-0.dtd"
   xmlns:inkscape="http://www.inkscape.org/namespaces/inkscape"
   version="1.1"
   id="Capa_1"
   x="0px"
   y="0px"
   viewBox="0 0 43.244 43.244"
   style="enable-background:new 0 0 43.244 43.244;"
   xml:space="preserve">
	<path
     style="fill:#1e201d"
     d="m 22.69,1.785 4.555,14.143 14.872,-0.016 c 0.619,0 1.127,0.492 1.127,1.111 0,0.365 -0.19,0.698 -0.46,0.905 l 0,0 -12.047,8.714 4.619,14.142 c 0.19,0.587 -0.127,1.206 -0.714,1.397 -0.381,0.127 -0.794,0.032 -1.079,-0.206 L 21.626,33.26 9.611,42.022 c -0.508,0.365 -1.206,0.254 -1.555,-0.238 -0.222,-0.302 -0.27,-0.683 -0.159,-1 l -0.016,0 L 12.516,26.642 0.469,17.927 C -0.039,17.562 -0.15,16.864 0.215,16.371 0.453,16.038 0.818,15.879 1.199,15.911 l 14.793,0.016 4.571,-14.143 c 0.19,-0.587 0.809,-0.905 1.397,-0.73 0.365,0.128 0.618,0.397 0.73,0.731 z"
     id="path3" />
</svg>
