<?xml version="1.0" encoding="utf-8"?>
<!DOCTYPE svg PUBLIC "-//W3C//DTD SVG 1.0//EN" "http://www.w3.org/TR/2001/REC-SVG-20010904/DTD/svg10.dtd">
<svg version="1.0" id="Country_area" xmlns="http://www.w3.org/2000/svg" xmlns:xlink="http://www.w3.org/1999/xlink" x="0px"
	 y="0px" viewBox="0 0 461.3 312" enable-background="new 0 0 461.3 312" xml:space="preserve">
<path id="Ukraine" fill="#333333" opacity="0.1" stroke="#58574B" stroke-linecap="round" stroke-linejoin="round" stroke-miterlimit="10" d="
	M259.4,242l0.3,0.3l-0.6-0.1l-1.1-0.5l-9.7-2l-4.2-1.6l-0.8-0.8l-0.7-1.2l-0.2-0.6l-0.2-1l0-0.7l0.5,0.2l0.5,1.6l0.4,1.1l0.6,0.8
	l1.1,0.6l8.6,2l3.5,0.8L259.4,242z M280.5,4.1l2.3,0.4l1.5-0.1l0.4,0.1l0.6,0.4l0.1,0l0.4,0.2l0.4,0l0.3-0.2l0.3-0.3l0.4-0.2
	l0.5,0.6l-0.1,1.4l0.4,0.6l0.5-0.1l1.6-1.7l2-1l1.1-0.2l1.1,0l0.6,0.2l0.3,0.3l0.2,0.5l0.4,0.7l0.5,0.4l1,0.6l0.5,0.6l0.6,1.3
	l0.3,0.4l1.6,1l0.4,0.4l0.4,0.6l0.3,0.4l0.1,0.4l0.1,0.4l0,0.4l-0.4,0.9l0,0.2l0.1,0.7l0.1,1.3l0.2,0.7l0.3,0.7l0.5,0.8l0.1,0.7
	l-0.2,0.6l0,0.4l1.2,0l0.5,0.3l0.9,1.1l0.2,0.1l0.3,0.2l0.2,0.1l0.1,0.2l0.1,0.5l0,0.1l0.3,0.1l0.4-0.3l0.3,0l0.4,0.3l0.8,0.9
	l0.5,0.3l0.6,0.5l0.4,0.3l0.7,1.5l0.1,1.6l-0.8,1.1l-0.5,0.1l-1.4,0l-4,1.1l-0.9,0.6l-0.2,0.9l0.3,0.4l0.9,0.2l0.3,0.2l0.1,0.3
	l0.1,0.8l0.1,0.4l0.2,0.3l1.1,1.1l0.3,0.5l0.2,0.7l0.1,0.9l0,0.4l-0.2,0.7l-0.1,0.4l0,0.4l0.1,0.3l0.1,0.3l-0.1,0.4l-0.2,0.2
	l-0.5,0.1l-0.1,0.2l0.1,0.3l0.3,0.3l0.5,0.4l0.4,0.2l0.4,0.1l0.4,0.1l0.4,0l0.5-0.3l0.3,1.3l-0.5,1.3l-0.9,1.1l-1.4,1l1.8,0.7
	l0.6,0.1l0.4-0.2l0.9-0.8l0.8-0.2l0.9,0.1l1.7,0.5l0.8,0.2l1.5-0.3l0.7,0.1l0.4,0.3l0.2,0.5l0.1,0.6l0.3,0.6l0.4,0.3l0.4,0.1l1.8,0
	l1.6-0.5l1.9-0.9l1.1-0.7l0.4-0.1l0.5,0.2l0.5,0.3l0.5-0.1l0.5-0.2l0.5-0.1l0.5,0.2l0.3,0.4l0.2,0.5l0.8,3.5l0.5,1.2l0.7,0.7l0.8,0
	l1.6-0.5l0.8,0l0.5,0.1l0.4,0.2l0.2,0.4l-0.2,0.7l-0.3,0.3l-1.3,0.4l0.1,0.4l0,0.8l0,0.3l0.1,0.4l0.2,0.3l0.6,0.1l0.3,0.2l0.3,0.5
	l0.1,0.4l0,0.5l0.1,0.6l0.2,0.5l0.5,0.7l0.2,0.4L335,61l0,0.5l0.1,0.4l0.4,0.3l0.6,0.3l0.3,0.2l0.2,0.4l0.3,1.1l0,0.9l0.1,0.8
	l0.6,0.7l-1.8,1l-0.3,0.5l0.1,0.5l1.4,4.6l0.6,0.9l0.8,0.3l0.5,0.1l0.5,0.2l0.5,0.3l0.4,0.6l0.3,0.9l0.1,0.7l0.2,0.6l0.6,0.6
	l0.5,0.3l0.5,0.2l0.5,0.1l0.5,0l0.4-0.2l0.1-0.1l0.3-0.4l0.2-0.5l0.4-0.5l0.2-0.1l0.5-0.1l0.2-0.1l0.3-0.3l0.4-0.7l0.3-0.3l0.4-0.2
	l2.3-0.4l4.3,0.1l0.7,0.3l0.2,0.7l0.7,0.3l2.7,3.7l0.6,0.2l0.6-0.1l0.6-0.3l0.5-0.4l0.5-0.5l0.2-0.1l0.3,0l0.2,0.1l0.5,0.3l0.6,0.1
	l0.7,0.4l0.8,0.1l0.2,0.1l0.4,0.2l0.1,0.1l-0.1,0.1l0,0.9l0,0.4l0.1,0.3l0.4,0.3l0.5,0.2l0.6,0.1l0.5-0.1l0.4-0.3l0.2-0.3l0.3-0.9
	l0.2-0.4l0.3-0.3l3.9-2.7l1.6-0.7l1.6-0.2l1.8,0.1l3.4-1.3l0.7-0.6l1.3-1.6L383,73l2.4-0.5l0.5,0.2l0.4,1l0.4,1.2l0.5,1l2.2,0.9
	l0.8,0.8l0.2,1.6l-0.2,0.9l0,0.4l0.1,0.4l0.2,0.2l0.9,0.8l2.7,3.4l0.9,0.5l2,0.7l1,0.5l0.9,0.7l0.8,0.9l0.9,1.3l0,0.1l0.4,0.7
	l0.1,0.6l0.1,0.2l0.5-0.4l1-0.8l0.3-0.1l0.3,0l0.5,0.3l0.3,0l1.1-0.9l0-1.7l-0.3-1.8l0.1-1.2l0.4-0.1l1.6,0l0.7-0.2l0.5,0l0.4,0.4
	l1,2.1l0.3,0.4l0.5,0.2l1.1,0l0.5,0.1l0.6,0.3l0.9,0.3l1.7-0.5l1.2,0.1l0.2-0.1l0.2-0.2l0.6-0.3l0.1-0.1l0,0.1l0.3,0.7l0.1,0.6
	l0.2,0.3l0.2,0.2l1.6,0.9l2.6,0.5l0.9,0.7l0.7,0.9l0.7,0.6l2.3-0.4l0.4-0.2l0.4-0.4l0.6-1.3l0.4-0.5l0.9-0.5l0.7,0.5l0,0l1.7,3.4
	l0.6,0.7l0.8,0.4l1,0.1l1-0.3l0.9-0.6l0.9-0.3l1,0.5l0.5,0.1l1.4,0l0.4,0.4l0.4,0.8l0.6,1.6l0.8,1.2l0.8,0.4l0.9,0.2l1,0.4l1.4,1.1
	l0.5,0.2l0.7-0.1l0.7-0.2l0.7-0.4l0.6-0.4l1.3-1.7l0.6-0.3l0.5-0.1l2.5,0.4l0.1,0.1l0.3,0.3l0,0.8l-0.3,0.6l-0.9,0.7l-0.4,0.5
	l-0.3,1.3l0.3,1.2l0.7,1.1l1.1,1.4l1.3,1.2l0.3,0.6l0,0.7l-0.2,1.3l0.1,1.4l-0.1,0.4l-0.5,0.4l-0.4,0.5l-0.7,1.4l-0.4,0.6l-1.3,1.2
	l-0.6,0.7l-0.4,1l-0.1,0.6l0,1.1l-0.1,0.4l-0.3,0.2l-0.4,0.1l-0.8,0l-0.8,0.1l-2,0.9l-1.3,0.1l-0.4,0.4l0,1.9l0.4,0.4l0.5,0.3
	l0.5,0.4l0.4,0.6l0.3,0.5l0.3,0.3l0.6,0.2l2,0.2l0.8-0.2l0.3,0l0.3,0.2l0.5,0.6l0.3,0.1l0.5-0.3l0.4-0.6l0.4-0.5l0.6,0l0.6,0.6
	l0.1,0.8l-0.3,0.8l-0.4,0.7l-1,1l-1,0.2l-2.9-0.8l-0.6,0.1l-0.5,0.3l-0.4,0.6l-0.2,0.4l-0.1,0.5l-0.2,0.4l-0.6,0.3l-0.2,0.3l-1,5.3
	l-0.1,1l1-0.2l0.5-0.2l3,0l0.7,0.3l0.6,0.6l0.3,1l0,0.3l0.1,0.2l0.1,0.2l0,0.1l-0.1,0.3l-0.2,0.1l-0.2,0l-0.1,0l0.1,0.6l0.3,0.3
	l0.3,0.2l1,1.7l0.4,0.9l0.2,0.5l0.3,0.3l-0.5,0.6l-0.4,0.6l-1.6,1.6l1.9,0.9l0.5-0.1l1.3-0.6l0.6,0.1l0.4,0.6l0,0.7l-0.3,0.7
	l-0.4,0.6l-1.1,1.1l-0.4,0.6l-1,2.6l-0.2,0.8l0,0.9l0.5,1.2l0,0.4l-0.1,0.1l-0.2,0l-1.4,0.4l-0.2,0.2l-0.2,0.4l0.1,0.2l0.2,0.2
	l0.3,0.4l0.4,0.8l0.1,0.4l0,0.6l-0.1,0.3l-0.2,0.6l0,0.3l0,0.3l0.2,0.5l0,0.2l-0.1,1.1l-0.3,1l-0.6,0.7l-0.8,0.3l-2.6-0.4l-0.8,0
	l-1.5,0.5l-0.8,0l-0.6-0.1l-1.1,0.4l-0.6,0.1l-0.5-0.2l-0.9-0.5l-0.5,0l-3.7,0.8l-1,0.4l-0.5,0.1l-0.5-0.1l-1.5-0.8l-0.1,0l-4.1,0.3
	l-1.1,0.6l-0.8,1.2l-0.5,1.6l-0.3,1.8l-0.1,1.6l-0.2,0.6l-0.5,0.1l-0.9-0.3l-0.4,0.1l-0.5,0.4l-0.8,1.2l-0.5,0.4l-0.6,0.3l-5.3,1.3
	l-0.8,0.7l-0.6,1.1l-0.4,1.4l-0.2,1.4l0.3,2.7l0,1.1l-0.5,1.2l-0.7,1.1l-0.3,0.7l0,0.6l0.4,0.4l0.5,0l0.9-0.2l0.5,0l0.4,0.1l0.3,0.4
	l0,0.8L418,192l-0.5,0.4l-0.5,0.4l-0.5,0.4l-0.4,0.9l-0.1,1.1l0.2,1.2l0.5,1l0,0l0,0l-0.5,0.5l-1.2,2.1l-0.8,0.5l0.5-1.3l-0.1-0.6
	l-0.7-0.2l-0.9-0.6l-0.1,0.1l-0.1,0.1l-0.6,0.5l-0.2,0.1l-1-0.3l-0.7-0.1l-0.3,0.2l-2.4-0.2l-2.7,1.2l-1.1,0.1l-3.4-0.3l-0.9,0.4
	l-1.5,1.9l-2.4,4.1l-0.6,1.4l-0.4,0.6l-0.6,0.3l0-1l-0.6-0.7l-0.9-0.4l-0.9-0.1l-0.5,0.2l-1.1,1l-2.9,1.4l-0.4,0.1l-0.3,0.2
	l-0.8,0.8l-0.3,0.2l-0.9,0.4l-1.3,1.5l-0.8,0.2l0.3,0.9l-0.3,0.9l-0.5,0.9l-0.2,0.9l-0.1,1.1l-0.4,1.1l-0.6,0.7l-0.7-0.1l0-0.3
	l0.2,0l0.6,0.2l0.4-1.1l0.2-1.4l0-0.7l-0.2-0.1l-1-1.1l-0.4-0.2l-0.9-0.2l-0.4-0.2l-0.4,0.3l-0.5,0l-0.7-0.2l-0.4,0.2l-0.3,0.3
	l-0.2,0.3l-0.2,0.2l-1.7,0.1l-1,0.7l-1.3,0.4l-0.8,0.5l-0.7,0.6l-1.6,2l-0.4,0.9l-0.1,1.1l-0.2,0l0-0.6l-0.1-0.1l-0.3,0.2l-0.3,0.1
	l0,0.2l0,0.1l-0.2-0.3l0.1-0.2l0-0.2l0-0.2l-0.3-0.2l-0.1,0l-0.3-0.4l-0.1-0.2l-0.2-0.1l-0.6-0.2l-0.5,0l-1,0.3l-1.9-0.2l-3.5,0.9
	l-0.6,0l-1.9,1.2l-1.4,0.9l-0.7,0.7l-2,2.6l-0.8,0.9l-3,1.7l-0.5,0.4l-0.4,0.5l-0.7,1.2l-0.4,0.4l-0.9,0.7l-0.4,0.4l-2.3,4.3
	l-0.1,0.2l-0.4,0.5l-1.3,2.8l-0.6,1l-0.6,0.7l-1.1,0.4l-0.6,0.6l-0.9,0.3l-0.6,0.5l-1,0.5l-0.5-0.1l0.1-0.4l0.8-1l0.9-0.6l-0.1-0.2
	l-0.1-0.3l2.7-1l1.3-0.8l0.6-1.5l0.6-0.7l0.2-0.7l0.7-1.4l0.9-1l0.3-0.7l0-1l-0.4,0.5l-0.4,0.4l-0.5,0.1l-0.7-0.5l-0.3-0.8l0.1-1
	l0.4-1.5l-0.2-0.1l-0.4,0l-0.3-0.1l-0.2-0.1l-0.4-0.3l-0.4-0.3l-0.4-0.5l-0.3-0.7l-0.1-0.7l-0.5,0.8l0.2,0.7l0.5,0.7l0.3,0.5
	l0.1,0.5l0.2,0.3l0.1,0.3l-0.1,0.6l-0.2,0.4l-0.8,1l-1.4,2.5l-0.1,0.1l-0.7,0.9l-1.1,0.8l-2.5,0.8l-0.3,0l-0.3-0.1l-0.2-0.2l0-0.3
	l-0.1-0.2l-0.3,0.2l-0.2,0.4l0,0.4l-0.1,0.4l-1.1,0.6l-0.1,0.2l-0.4,0.7l-0.1,0.4l0,0.4l0.1,0.3l0.2,0.6l0.3,2.4l0.1,0.5l0.3,0.6
	l1.2,4.6l0.3,0.5l0.3,0.4l0.3,0.5l1.6,3.7l2.5,4.4l8.3,11l4.1,2.6l1,0l4.7-1.6l0.5-0.4l0.7-0.8l0.1-0.4l0-0.3l0.1-0.3l0.4-0.1
	l0.1-0.2l0.4-0.6l0.1-0.2l0-0.7l0.2-0.7l0.3-0.6l0.4-0.3l0.7,0l0.1,0.4l-0.2,0.6l-0.1,0.7l0.2,0.4l0.5,0.3l2.1,1.1l1.1,0.3l1-0.3
	l0.7-1.1l0.3-1.2l0.1-0.2l0.7-0.5l0.5-0.6l0.5-0.2l3.1-0.2l0.4-0.2l0.4-0.4l0.4,0.1l0.2,0.5l-0.2,0.7l0.3,0l0.2-0.2l0.2-0.3l0.3-0.1
	l0.5,0.1l0.9,0.5l0.6,0.1l1.5-0.5l0.6,0.1l0.7,0.8l0.5,0.4l0.4-0.2l0.4-0.5l0.4-0.1l0.4,0.2l0.4,0.4l0.6,1.3l0.3,0.9l-0.2,0.4
	l-0.9,0.3l-0.3,0l-0.3-0.1l-0.8-0.4l-0.6,0l-0.5,0.2l-0.3,0.4l-0.1,0.8l0.1,0.3l0.2,0.2l0.1,0.2l-0.1,0.3l-0.2,0.1l-0.6,0.1
	l-0.2,0.1l-0.3,0.5l-0.2,0.8l-0.2,0.8l-0.1,2.3l0,0.8l0.2,0.8l0.8,0.8l0.4,0.5l0,0.6l-0.3,0.4l-1.9,0.8l-2.4,0.3l-0.3,0.1l-0.3,0.2
	l-0.1,0.2l-0.1,0.7l-0.1,0.2l-0.5,0.2l-2.4-0.4l-1.6-0.8l0,0.3l-0.9-0.3l-0.6,0.7l-0.4,0.9l-0.4,0.5l-2.1,0l-1.9,0.4l-0.6-0.2
	l-0.3-0.8l-0.2-0.4l-0.9-0.9l-0.3-0.3l-1.8-1l-2-0.6l-1.2-0.1l-1.2,0.1l-1.1,0.3l-1,0.5l-1.4,1.2l-0.2,0.3l0,0.5l-0.1,0.3l-0.1,0.3
	l0.1,0.4l0.2,0.2l0.8,0.3l0,0.2l-0.3,0.2l-0.9,0l-0.4,0.2l-0.3,0.5l0,0.5l0.2,1.1l-1.3-0.9l-0.1,0.2l-0.3,0.2l-0.2,0.2l-0.7-0.4
	l-0.5,0.4l-0.6,1.3l-0.5,0.5l-1.2,0.3l-0.5,0.2l-0.6,1.3l-0.5,1.7l-0.7,1.2l-1.2-0.2l-0.3-0.4l-0.3-0.5l-0.4-0.4l-0.5-0.2l-0.9,0
	l-0.3,0.1l-0.3,0.2l-0.2,0.2l-0.2,0.2l-0.2,0.2l-0.5,0.1l-0.9-0.2l-0.4,0.3l-0.4,0.2l-1.9-0.2l-1,0.4l-1.8,1.4l-1,0.5l-2.2,0.5
	l-0.9,0.4l-0.6,0.8l0-0.1l0-0.1l0,0l-0.1,0l-1,1.6l-0.1,0.3l-0.2,0.3l-0.9,1.6l-1,2.8l-0.3,0.5l-0.2,0.1l-0.6,0l-0.4,0l-0.3,0
	l-0.1,0l-0.1,0.1l0,0.1l0,0.1l-0.1,0.1l-0.5,0.9l-0.3,0.3l-1.3,0.3l-0.3,0.4l-0.2,0.6l-0.3,0.7l-0.3,0.3l-0.9,0.7l-0.4,0.1l-0.6,0.1
	l-2.9,1.5l-0.5,0.1l-0.6-0.1l-1.7-0.6l-0.3,0l-0.6,0.2l-0.3,0.1l-1.8,0l-0.6-0.1l-2.1-0.9l-0.4-0.3l-0.2-0.7l-0.2-0.3l-0.9-1
	l-0.3-0.2l-0.5,0l-0.6,0.2l-0.6,0.1l-0.5-0.4l-0.3-0.3l-3-2l-0.2-0.4l0-0.5l0,0l0.1,0.1l0.8-0.2l0.2-0.1l0.6-0.5l0.2-0.1l0.6,0
	l0.3-0.1l0.2-0.1l0.4-0.1l1.4-0.1l0.5-0.2l-0.4-0.1l-0.9-0.1l-0.3-0.2l-0.1-0.6l0.2-0.5l0.3-0.4l0.2-0.4l0.1-0.6l-0.1-0.4l-0.3-0.7
	l-0.2-1.1l-0.2-0.6l-0.3-0.5l0.2-0.2l0.1-0.1l0.1-0.2l0.2-0.8l0.2-0.7l0.4-0.5l1-0.4l0.3-0.5l0.2-0.7l0.1-0.8l0-0.9l-0.3-1.5
	l-0.1-0.6l-0.1-0.2l-0.5-1l-0.1-0.3l-0.1-1l-0.5-1.5l-0.7-0.9l-1.9-1.1l-1.5-1.3l-0.5-0.2l-1.1,0.2l-1,0.4l-0.9,0.6l-0.6,0.2
	l-0.3-0.3l-0.3-0.5l-0.6-0.3l-1.2-0.3l-0.4-0.4l-1-1.2l-0.7-0.4l-0.2-0.3l-0.3-0.6l-0.3-0.2l-0.5-0.2l-0.2-0.1l-1.8-1.5l-1-0.6
	l-1.1-0.4l-4-0.3l-0.6,0.1l-0.4,0.3l-0.9,1.1l-0.4,0.2l-1.9,0l-0.6-0.2l-0.9-0.5l-0.6-0.1l-0.8-2.1l-0.1-0.5l0.3-1l0.8-0.9l3.1-2.5
	l0.5-0.2l0.6-0.1l0.5-0.2l0.4-0.2l0.4-0.3l0.2-0.3l0.1-0.2l0.2-0.2l0.4-0.1l0.3,0l0.5,0.2l0.3,0l0.4-0.1l0-0.3l-0.1-0.3l-0.1-0.3
	l0.1-0.3l0.1-0.2l0.2-0.3l0.8-0.8l1.8-1.3l6-3l0.3-0.3l0.1-0.5l-0.1-0.1l-0.3-0.1l-0.2-0.2l0-0.4l0.2-0.2l0.3,0.2l0.4,0.6l1,0.5
	l0.9-0.1l1.9-1.3l0.9-0.4l0.1-0.3l0.8-0.9l0.4-0.2l1.1-0.8l0.4-0.2l0.2,0.1l0.5,0.4l0.3,0.1l0.3-0.1l0.6-0.2l0.6-0.8l0.5-0.4
	l0.3-0.1l0.2-0.1l0.3,0.1l0.3,0.1l0.3,0.2l0.1,0.2l0.1,0.2l0.3,0l0.6-0.1l0-0.5l-0.1-0.9l0-0.7l0.4,0.2l0.4-0.2l0.9-0.3l0.5-0.3
	l-0.5-0.4l-0.5-0.2l-1.5-0.4l-0.7,0.1l-0.3,0.1l-0.2,0.2l-0.2,0.1l-0.3-0.2l0.5-0.7l0.2-0.5l-0.1-0.2l-0.3-0.1l0-0.3l0.1-0.4
	l0.2-0.3l0-0.3l-0.4-1.3l-0.1-0.4l0.3-0.4l0.2-0.5l-0.1-0.5l-0.9-1.5l-0.5-0.4l-0.7,0.3l-0.6,0.5l-0.4,0.6l0,0.6l0.7,0.5l0,0.3
	l-0.7,0.1l-0.7,0.2l-0.3,0.5l0.6,0.8l-0.3,0l-0.6-0.2l-1.6,0l-0.2-0.2l-0.9-1.1l-0.7-0.6l-0.7-0.1l-0.5,0.8l-0.1-0.2l-0.1,0l-0.1,0
	l-0.2,0l0.4-0.5l0.3-0.5l-0.1-0.4l-0.6-0.1l-2.1,0.3l0.2-0.5l0.1-0.5l0.2-2.7l-0.6,0.7l-0.4,1.1l-0.5,1l-0.8,0.5l-0.2,0.1l-0.3,0.2
	l-0.3,0l-0.3-0.1l-0.6-0.4l-1.6-0.8l0.3,1.1l-0.4,0.5l-2.8,0.5l-0.4,0l-0.2-0.1l-0.2-0.1l-0.2,0l-0.6,0l-0.2,0l-1.5-0.5l-0.6,0
	l-0.4,0.1l-1,0.5l-3.3,0.7l-0.3,0.1l-0.3,0.2l-0.4,0.5l-0.2,0.2l-1.1,0.2l-5.4-1.5l-0.6-0.4l-0.3,0l-0.1,0l-0.1-0.2l-0.1-0.5
	l-0.1-0.2L262,242l-0.1-0.5l-0.2-0.2l0.5-0.5l0.1-0.2l0.1-0.4l-0.8,0.4l-0.7,0.1l-0.7-0.1l-1.2-0.4l-0.4-0.1l-0.4-0.2l-1-1.3
	l-0.7-0.6l-0.9,0.3l-1.3-0.7l-2.2-1.7l0,0.4l0.1,0.5l0.1,0.5l-0.2,0.2l-1.7,0l-0.5-0.2l-0.4-0.3l-0.4-0.4l-0.1-0.6l0.3-0.5l0.5-0.4
	l0.5-0.2l0.5-0.1l1.5,0.3l2-0.4l0.2-0.2l1.4-1.3l0.3-0.1l0.4,0l0.2-0.1l-0.2-0.4l-1.2-1.6l-0.4-0.2l-1,0.1l-1.2-0.2l-3.7-1.5
	l-0.6-0.2l-0.6,0l-0.4,0.2l-0.4,0.5l-0.1,0.2l-0.1,0.3l0,0.4l0.1,1.2l-0.6-1.6l-0.2-0.2l-0.4-0.1l-3.1-3.1l-0.4-0.9l0.9,0.7l0.7,0.8
	l0.4,0.2l4.6-0.4l0.9,0.3l1.5,0.9l0.1,0l0.3,0.1l2.3,0l2.3,0.5l1.5-0.3l0.5,0l2.9,0.6l1.5,0.9l1.1,0.2l1.1-0.1l1-0.5l0.7-0.8
	l-0.5-0.7l0.7-1l1.8-1.6l0.5-0.3l1.2-0.2l0.5-0.3l0.4-0.5l0.4-0.3l0.4-0.4l0.3-0.6l-0.6,0.3l-0.7,0.5l-0.7,0.4l-0.6-0.1l-3.5,2.1
	l-1.9,0.3l-1.8-0.9l-0.4-0.7l-0.1-0.1l-0.3,0.1l-0.4,0.5l-0.2,0.1l-0.3,0.1l-0.5,0.2l-0.3,0.1l-0.6,0.8l-0.4-0.4l-0.4-1.4l-0.4-0.3
	l-1.6-0.3l-0.4-0.2l-0.4-0.4l-0.4-0.7l-0.4-0.7l-0.2-0.7l-0.1-0.7l-0.3-0.6l-0.3-0.5l-0.3-0.6l-0.1-1.6l0.5-1.2l0.7-1.1l0.5-1.4
	l0.1-0.7l0-0.6l-0.3-0.4l-1.3-0.2l-0.3-0.3l0.1-0.5l0.8-1.2l0.2-0.4l-0.2-0.3l-0.7-0.1l-1.1,0.2l-0.5,0l-0.4-0.4l0.7-1.6l0.1-0.9
	l-0.4-1l-0.4-0.4l-0.3-0.1l-0.3-0.2l-0.2-0.6l-0.1-0.7l0-0.4l-0.1-0.3l-0.4-0.4l-1.6-0.7l-0.2-0.5l0.1-0.8l0-0.3l-0.3-0.1l-0.1,0.1
	l-0.3,0.7l-0.1,0.2l0.2,0.4l0.4,0.4l0.5,0.3l1.2,0.3l0.3,0.4l0,2.2l0.1,0.2l0.6,0.2l0.2,0.2l0.1,0.2l0.1,0.1l0.3,0.3l-0.2,0.6
	l-0.4,0.6l-0.2,0.3l-0.2,1.7l0.8,0.4l1.2-0.2l0.9,0.1l-0.8,0.9l-0.4,0.6l-0.1,0.6l0.2,0.7l0.5,0.1l0.6-0.2l0.5-0.4l0.1,0.8l-0.2,1.1
	l-0.5,1l-0.6,0.4l-0.6,0.2l-0.5,0.6l-0.3,0.8l0,1l1,1.3l0.1,0.3l-0.2,1.7l0.1,0.7l0.1,0.3l0,0.3l-0.2,0.5l-0.2,0.2l-0.6,0.4
	l-0.3,0.2l-1.2,0.2l-1.1-0.2l-2.6-1l-1.6,0.2l-0.4,0.2l-0.2,0.5l-0.3,0.5l-0.6,0.1l-0.2-0.1l-0.4-0.4l-0.2-0.1l-0.6,0.1l-0.3,0
	l-0.2-0.1l-0.1-0.5l0.3-0.6l1.4-2.5l0.4-0.8l0-0.4l0.3-0.3l1.2-1.8l-0.3-0.5l-0.2,0.2l-0.2,0.6l-0.2,0.5l-0.2,0.1l-0.5,0.2l-0.2,0.1
	l-0.1,0.2l-0.5,0.8l0,0.1l-0.1,0.1l-0.3,0.1l-0.3-0.2l-0.4-0.3l-0.4-0.9l-0.3-0.5l-0.4-0.2l0.3,0.9l0,0.2l0.1,0.6l0.2,0.2l0.2,0.1
	l0.8,0.7l0.1,0.3l-0.2,0.5l-0.5,0.8l0,0.1l-0.4,0.3l-0.9,1.5l-0.3,0.3l-0.5,0.1l-1.2,0.6l-0.4,0.3l-0.4-0.2l-0.7-0.1l-0.3-0.2
	L236,225l-0.5-0.4l-1.8-0.5l-0.7,0l-1.4,0.4l-1.4,0.2l-1.1,0.4l-0.6,0.1l-0.2,0.1l-0.6,0.5l-0.2,0l-0.3-0.1l-0.3,0.1l-1.6,1.1
	l-0.3,0.1l-1.1-0.3l-0.3,0l-0.3,0.3l-0.8,1.1l-0.2,0.3l0.1,0.5l0.4,1l0.2,0.8l0.1,0l0.2,0.2l0.1,0.2l-0.1,0.1l-0.1,0.1l-0.1,0.2
	l-0.1,0.2l-0.3,1.1l0,0.2l-1.1,1.4l-0.4,0.4l-1.4-0.1l-0.2,0.2l0.1,0.2l0.6,0.4l0.2,0.3l0,0.4l-0.1,0.4l-0.8,1.5l-1.9,2.6l-0.6,1.1
	l-0.4,0.5l-0.4,0.2l-0.2,0.3l-0.5,1.5l-0.3,0.5l-3.3,3.1l-3,3.9l-1.5,1.5l-1.8,1.4l0.1-0.5l-0.1-2.2l-0.2-0.1l-0.3,0.3l-0.2,0.4
	l-0.1,0.4l-0.1,1l-0.1,0.3l-0.1,0.3l0,0.2l-0.1,0.1l-0.2,0l-0.1-0.1l-0.2-0.1l-0.1-0.1l-0.1,0.2l-0.2,0.1l-1.2-1l-0.6-0.3l-0.6,0.3
	l-0.2,0.8l-0.1,0.9l-0.2,0.8l-0.3-0.5l-0.3-0.3l0-0.3l0.2-0.4l-0.1-0.2l-0.2,0.1l-0.2,0.5l0,0.7l0.1,0.5l0.2,0.4l0.2,0.3l-0.2,1
	l-0.1-0.4l-0.2-0.3l-0.6-0.4l-0.1-0.1l0-0.2l0-0.1l-0.2-0.1l-0.2,0.1l-0.1,0.2l-0.1,0.2l-0.1,0.1l-0.6,0l-0.7,0.1l-0.6,0.4l-0.2,0.8
	l0.2,0.5l0.3,0.3l0.7,0.3l0.4,0.4l0.2,0.3l-0.1,0.1l-0.5,0.2l-0.4,0.4l-0.5,0.2l-0.5-0.3l-0.1,0.3l-0.1,0.1l0,0.1l0.1,0.3l-0.4,0.2
	l-0.8,0.2l-0.3,0.3l0.1-1l-0.3-1l-0.5-0.8l-0.6-0.3l0.1-0.3l-0.1-1.8l0.2-0.6l0.2-0.3l0-0.2l-0.2-0.4l-0.1-0.2l-0.1-0.1l-0.1-0.1
	l-0.5-0.5l-0.1-0.2l-0.1-0.3l-0.1,0l-0.1,0.2l-0.1,0.3l0.1,0.3l0.4,0.5l0.1,0.2l-0.1,0.3l-0.5,0.7l-0.2,0.4l0,0.6l0.1,0.3l0.1,0.2
	l0.2,0.5l-0.9,0.7l-0.2,1.5l0,1.8l-0.3,1.7l0.7,0.4l0.4,0.1l0.5,0.1l0.5-0.1l0.4-0.3l0.7-0.7l-0.4,0.4l-0.9,1.4l-0.4,0.3l-0.3,0.2
	l-0.2,0.4l-0.1,0.4l-0.2,0.2l-0.4,0.1l0,0.3l0.4,0.9l0.2,0.3l0.3,0.2l0.3,0l0.1-0.4l0-0.4l0.1-0.4l0.5-0.1l0,0.9l0.1,0.2l0.2,0
	l0.1-0.1l0-0.1l0.2,0.1l0.2,0l0.2,0.1l0.1,0.6l0.2-0.6l0.1-0.6l0.2-0.3l0.4,0.5l0.2,0.6l0,0.7l-0.2,0.5l-0.5-0.1l0.4,0.4l0.2,0.7
	l0.1,0.8l0,1.6l0,0.3l-0.1,0.3l-0.2,0.5l0,0.3l-0.3,0.9l-0.1,0.4l0,0.3l0,0.1l-0.1,0l-0.5,0.5l-0.4,0.2l-0.5,0.1l-0.4-0.1l0,0
	l0.1-0.3l0.1-0.3l0-0.3l-0.2-0.2l0.4-1.1l-0.1-1.5l-0.4-1.3l-0.6-0.6l-0.3-0.2l-1.2-1.2l-3.7-1.4l-2.1-0.3l-0.3-0.1l-0.3-0.2
	l-0.3-0.1l-0.3,0.2l-0.2,0.2l-0.2,0.2l-0.2,0.2l-0.2,0.1l-0.6,0l-0.4-0.1l-0.5,0l-0.6,0.3l-0.4,0.3l-0.2,0.3l-0.1,0.3l-0.2,0.1
	l-0.6,0l-0.2,0.1l-0.4,0.4l-0.5,0.2l-1.1,0.3l-1.4,1.1l-0.4,0.2l-0.6,0l-0.2,0.1l-0.2,0.1l-0.2,0.3l-0.1,0.7l-0.1,0.3l-0.6,0.2
	l-0.5-0.3l-0.4-0.5l-0.3-0.2l-0.6-0.1l-0.7-0.5l-0.4-0.2l-0.7,0.2l0,0.5l0,0.6l-0.8,0.4l-0.1,0.3l0.1,0.3l0.1,0.3l0.2,0.2l0.8,0.4
	l-0.3,0.3l-0.4,0.1l-0.8,0l-1,0.1l-3.6-0.9l-2.2-1.3l-2.4-0.7l-0.9-0.6l-0.5-0.1l-0.6-0.4l-0.5-1l-0.7-2.1l0.2-0.8l-0.5-0.7
	l-0.8-0.5l-0.6,0l-0.1,0l-0.4-0.5l0.1-0.3l0.2-0.5l0.2-0.4l0,0l0,0l1.5-1l0,0l1.9,0.2l2,0.6l1.7,0.1l0.6-0.2l0.1-0.5l-0.1-1.3l0-0.1
	l0-0.1l0.2-0.3l0,0l0.2-0.1l0.7-0.3l-0.4-0.5l-0.1-0.5l0-0.5L162,261l-0.3-0.4l-0.4-0.3l-0.2-0.3l0.2-0.4l0.7-0.9l0.3-0.3l0.5-0.3
	l0.8-0.2l0.2-0.3l-0.1-0.4l-0.1-0.3l0.5-0.7l1.8-0.1l0.7-0.4l0.1-0.4l0-0.4l-0.1-0.3l0-0.2l0.2-0.2l0.8-0.1l0.5-0.3l0.3-0.3l0.2-0.5
	l0.1-0.8l-0.1-0.6l-0.3-1.3l0.1-0.6l0.3-0.5l0.5-0.3l4.7-1.1l0.7-0.3l0.1-0.7l-0.4-1.7l0-0.9l0.2-0.6l0.9-1l0.6-1l0.3-0.9l-0.1-0.8
	l-0.7-0.7l-0.9-0.9l0,0l-0.4-0.6l0-0.5l0.2-0.5l0.2-0.7l0-0.6l-0.4-1.8l-0.2-1.4l0.2-1.1l0.6-0.8l2-1.3l1-0.3l0.5-0.2l2.4-1.2l0.5,0
	l0,0l0.4,0.5l0.2,0.8l-0.1,3.2l-0.1,0.4l-0.2,0.4l-0.3,0.3l-0.2,0.4l0,0.4l0.4,0.4l0.6-0.4l1-1l0.3-0.1l0.2,0.1l0.1-0.1l0.2-0.5
	l0-0.4l-0.1-0.8l0.1-0.5l0.5-0.8l0.4,0.2l0.6,1.3l0.5,0.7l0.3,0l1.2-1.7l0.5-0.5l0.5-0.3l0,0l0.6,0.1l0.1,0.2l0,0.2l-0.1,0.3
	l-0.2,0.3l-0.2,0.3l-0.1,0.3l0,0.3l0.1,0.3l0.4,0.2l0.8,0.2l0.4,0.1l0.4,0.4l0.4,0.8l0.4,0.5l0.4,0.3l0.4,0.1l0.4-0.2l0.4-0.3
	l0.2-0.6l-0.1-0.9l0.2-0.2l0.7,0l0.5-0.2l0.3-0.6l0-1.1l0.3,0.6l1.4,1.4l0.5,0.9l0.1,0.3l0,0.4l0,0.7l0.1,0.3l0.5,0.6l0.5-0.1l1-0.9
	l0.5-0.3l0.4-0.1l3.1,0.2l1.2-0.2l0.7-0.7l0.7-1.2l-0.3-0.2l-0.4-0.1l-0.4,0.1l-0.3,0.2l-0.4-0.5l-1.2-1l0.2-0.3l-0.3-0.7l-0.2-0.2
	l-0.2-0.2l-0.1,0l-0.3,0.2l-0.2,0l-0.1-0.1l-0.1-0.4l0-0.1l-1.2-0.5l-0.4-0.5l-0.1-0.9l0.5,0l0.6-0.1l0.3-0.8l-0.1-0.4l-0.3-0.8
	l-0.1-0.4l0-0.5l0.1-0.4l0.1-0.3l0.1-0.5l0.3-2.4l0-0.7l-0.1-0.3l-0.3-0.5l-0.1-0.3l0-0.4l0-0.8l-0.1-0.2l-0.3-0.2l-0.3,0.1
	l-0.2,0.2l-0.2,0l-0.1-0.2l-0.2-0.7l-0.1-0.3l-0.7-0.6l-0.7-0.1l-0.8,0.1l-0.8-0.1l-0.5-0.4l-0.6-1l-0.4-0.5l-0.4-0.2l-0.9-0.1
	l-0.4-0.2l-0.2-0.2l-0.4-0.5l-0.2-0.1l-0.6,0.1l-0.2,0l-0.2-0.4l0-0.5l0-0.1l0.1-0.5l0.2-1.4l0.3-0.4l0.3-0.3l0.2-0.5l0-0.6
	l-0.2-0.5l-0.3-0.4l-0.3-0.2l-0.5,0l-0.3,0.4l-0.2,0.5l-0.3,0.2l-0.2-0.2l-0.8-1.5l-0.1-0.1l0-0.1l0-0.1l0.1-0.1l0.7-0.1l0.6-0.2
	l0.4-0.4l0.2-0.9l-0.2-2l0.1-0.8l0.6-0.3l0.3-0.7l0-0.9l-0.2-0.9l-0.3-0.7l-0.4-0.4l-0.5-0.2l-0.5,0l-0.5,0l-0.3,0.6l-0.1,0.6
	l-0.2,0.5l-0.5,0.4l-0.4,0.1l-0.4,0l-0.4-0.2l-0.3-0.3l-0.3-0.4l-0.1-0.1l-0.1-0.5l0-0.5l-0.1-0.6l-0.3-0.5l-0.4-0.2l-0.4-0.1
	l-0.4-0.2l-0.2-0.4l-0.1-0.5l-0.2-0.4l-0.8-0.5l-0.5-0.8l-0.3-0.2l-0.4,0.2l-0.3,0.4l-0.3,0.2l-0.5-0.4l-0.2-0.4l-0.4-1.2l-0.1-0.1
	l-0.2-0.3l0,0l0,0l0,0l-0.3-1.5l0.4-1l0.7-0.9l0.7-1.1l0.3-1.4l0-1.4l0.2-1.2l0.8-1l0.3-0.5l-0.1-0.4l-0.3-0.3l-0.9-0.3l-0.3-0.3
	l0-0.4l0.2-0.7l0.3-0.4l0.5-0.5l0.4-0.5l0.1-0.5l-0.3-0.2l-1-0.3l-0.3-0.3l-0.2-0.6l-0.2-1.3l-0.2-0.6l-0.3-0.5l-0.3-0.3l-0.3-0.1
	l-0.4,0l-0.8,0.4l-1.2,1.4l-0.9,0.2l-0.8-0.4l-0.4-0.3l-0.5-0.4l-0.8-0.9l-0.5-0.9l-0.2-0.3l-0.4-0.4l-0.2-0.3l0-0.2l-0.1-1l-0.4-1
	l-0.1-0.3l0-0.3l-0.1-0.3l-0.2-0.3l-0.7-0.5l-0.9-0.2l-1.8-0.1l-2.3-1.1l-0.8-0.1l-0.6,0.2l-0.5,1.4l0,0l0,0.2l-0.2,0.6l0,0.7
	l-0.1,0.4l-0.3,0l-0.5-0.4l-0.3-0.3l-0.7-1.5l0.4-0.5l0.1-0.6l-0.2-0.5l-0.4-0.3l-0.6,0.1l-0.4,0.5l-0.3,0.6l-0.4,0.4l-0.5,0.1
	l-0.3-0.3l0-0.5l0.2-0.5l0.4-0.5l0.4-0.2l0.3-0.3l0.2-0.8l0-0.7l-0.2-0.3l-0.4-0.1l-1.2,0.1l-0.5,0.3l-0.4,0.3l-0.6,0.3l-0.6,0.1
	l-0.4-0.2l-0.3-0.5l-0.1-0.7l-0.2-0.6l-0.4,0l-0.8,0.7l-0.4,0.1l-0.6,0l-0.4-0.3l0.5-1.5l-0.1-0.7l-0.4-0.5l-0.5-0.3l-1.3-0.2
	l-0.9-0.2l-1-0.4l-0.5-0.9l-0.2-0.2l-0.3-0.4l-0.5-0.8l-0.4-0.4l-1.6-1.3l-0.8-0.4l-3.2-0.1l-0.5-0.3l0-1l-0.6-0.1l-0.7,0.4
	l-0.3,0.1l-1,0l0,0l-0.6,0.8l-1.6,1.3l-0.4,0.2l-0.3-0.2l-0.7-0.7l-0.5-0.1l-0.9,0.4l-1.5,1.7l-0.1,0.2l-1,0.4l-0.8-0.1l-2.7-1.2
	l-0.5-0.4l-0.3-0.1l-0.3,0.1l0,0.3l0.1,0.3l0,0.3l0,0.1l0.1,0.2l0,0.2l-0.1,0.1l-0.3-0.1l-0.3,0l-0.2-0.1l-0.2,0l-0.3,0.2l-1,0.1
	l-0.9-0.6l-0.8-0.8l-0.8-0.4l-0.3,0.1l-0.1,0.2l-0.1,0.3l-0.2,0.2l-0.2,0l-0.4-0.2l-0.1,0l-0.3,0.4l0,0.3l0.1,0.5l0.1,0.7l0,0.7
	l-0.1,0.5l-0.3,0.2l-0.5,0l-0.5-0.2l-0.3-0.4l-0.2-0.5l-0.3-0.4l-0.5-0.2l-0.2,0.3l-0.1,0.5l-0.9,0.5l-0.3,0.4l-0.2,0.6l0,0.3
	l-0.8,0.3l-3.2,0.5l-0.4,0.1l-1.2,0l-0.4,0.1l-0.9,0.4l-0.5,0.1l-0.5-0.1l-0.2-0.1l-0.3,1.3l0,0.9l-0.3,1.2l-0.5,1.2l-0.4,0.8
	l-0.3,0.3l-0.7,0.5l-0.3,0.4l-0.7,1.3l-0.3,0.4l-1.3,0.5l-0.6,0l-1.9-0.1l-1.7,0.4l-1.2-0.2l-0.4,0l-0.8,0.3l-1.4,0.1l-1.7,0.6
	l-12.6,0.5l-1.2,0.7l-2.8,3.9l-1.2,0.9l0,0l0,0l-1.7,0.6l-2,0.2l-0.4,0l-0.8,0.1l-0.5-0.4l-0.5-1l-0.7-1.6l-0.3-0.5l-0.4-0.4l-2-1
	l-0.8-0.6l-0.4-0.6l-0.1-0.5l0-0.5l-0.1-0.6l-0.4-0.5l-0.6-0.6L64,167l-0.2-0.1l-0.5-0.2l-1.5-0.1l-1.4-0.5l-0.5,0l-0.6,0.3
	l-1.1,0.8l-1.3-0.1l-1.8,0.7l-0.6-0.1l-1.5-0.7l0,0l-0.4-0.1l-0.9-1l-0.5-0.3l-1.2-0.4l-0.4-0.3l-0.8-0.1l-2.7,0.8l-0.5-0.1
	l-0.1-0.6l-1.2-1.4l-0.4-0.3l-1.8-0.1l-0.6-0.1l-1-0.5l-1.6-0.3l-0.5-0.2l-1,0.1l-0.3,0.1l-0.3,0.2l-0.1,0.2l-0.1,0.2l-0.2,0.2
	l-0.1,0.1l-0.1,0.1l-0.5,0l-1.6-1l0,0l0,0l0,0l0,0l-0.2,0l-0.2,0l-0.2,0l-0.2-0.1l-0.5-0.7l-1.1-1.2l-0.9-1.4l-0.4-0.3l-1.7-0.8
	l-0.6-0.2l-0.5,0.2l-0.6,0.7l-0.8,1.7l-0.4,0.6l-1.2,0.8l-0.4,0l-0.4-0.2l-0.4-0.3l-0.3-0.3l-0.4-0.3l-0.4,0l-0.3,0.5l0.1,0.8
	l-0.3,0.5l-0.5,0.3l-0.5,0.1l-0.9-0.9l-0.2-0.5l0.5-0.5l0.1-0.6l0.2-0.3l0.1-0.4l-0.1-0.7l-0.2-0.5l-0.3-0.5l-0.7-0.8l-0.9-0.6
	l-0.1-0.2l-0.4-0.3l-0.5,0.1l-0.5,0.2l-0.5,0.1l-1.8-0.2l-0.4,0.2l-0.1,0l-0.1-0.2l-0.3-0.9l-0.2-1.2l-0.3-0.8l-1.6-2.7l-0.1-0.1
	l-0.1,0l-0.1,0l-0.5,0.2l-0.4,0l-0.4-0.1l-0.5-0.3l-0.1,0l-0.1,0l-0.1,0L9.5,150l-0.2,0L9.1,150l-0.2-0.2l-1-2.1l-0.2-0.8l0-0.5
	l0.1-0.4l0-0.4l-0.2-0.3l-0.2-0.1l-0.7,0l0.1-0.6l0.5-1.1l-0.8-0.6l-0.8-0.2l-0.9,0.2l-0.3,0.2l0,0l0,0l0,0L4,143l0.4-2.7l0.4-0.6
	l0.1-0.6l-0.1-1.6l0.1-0.7l0.4-0.6l1.8-1.1l0.2-0.3l0.3-0.6l0.2-0.2l0.3-0.2l0.7-0.1l0.3-0.2l0.5-0.5l0.4-0.7l0.3-0.8l0.1-0.8
	l0.1-0.5l0.2-0.2l0.3-0.2l0.3-0.3l0.2-0.4l0.1-0.3l0.1-1.3l0-0.3l0-0.3l0.2-0.5l0.1-0.1l0.2-0.2l0.7-0.4l0.3-0.3l0.1-0.2l0.1-0.5
	l0.1-0.2l0.4-0.6l0.7-1.5l0.5-0.3l1,0l0.4-0.3l0.1-0.6l0.2-0.9l0.3-0.9l0.3-0.6l0.6-0.4l0.5,0.2l0.8,1.1l0.6,0.5l0.5,0.1l0.5,0
	l0.9,0.1l0.6-0.1l0.3,0.1l0.2,0.3l0.4,0.7l0.3,0.1l0.4,0.3l0.5,0.6l0.5,0.3l0.4-0.6l0-0.1l0-0.1l-0.3-0.8l-0.1-0.4l0.1-0.5l0.3-0.7
	l0-0.3l-0.3-0.4l-1-0.8l-0.4-0.4l-0.6-1l-0.8-0.7l0.1,0l0,0l-0.4-0.3l-0.4,0.4l-0.1,0.1l-0.1-0.2l0.2-0.5l0.5-0.8l0.5-1.3l0.5-1.1
	l0.2-0.5l0-3.5l0-0.6l-0.1-0.3l-0.5-0.6L22,106l0-0.2l0-0.4l0-1.6l-0.1-0.6l-0.3-1.4l0.8-1.4l2.1-2.3l0.6-1.2l0.2-0.3l0.3-0.2l0.5,0
	l0.3-0.1l0.5-0.4l1.8-2.6l0.3-0.3l0.2-0.1l0.5-0.1l0.2-0.2l0.1-0.3l0.3-0.7l0.2-0.3l1.1-1l3.1-3.6l1.1-1l1-0.6l0.8-1.1l6.2-5.5
	l1.2-0.7l1.4-0.9l0,0l0,0l0,0l0.8-0.5l2.1-1.9l0.4-0.5l0,0l0.4-1l0.3-0.5l0.4-0.3l0.4-0.2l0.9-0.2l4.4,0.4l1.3-0.4l0.7-1.2l0.1-0.4
	l0.1-0.5l0-0.7l0.1-0.5l1.6-0.7l0.5-0.5l0.3-0.4l0-0.1l-0.1-0.1l-0.1-0.5L61,64.4l0.6-0.9l0,0l-0.5-1.5l-0.1-0.8l0.2-0.9L60.7,60
	l-0.6-0.5l-0.3-0.6l0.4-0.6l0-0.2l-0.7-0.1L59,57.6l-0.3-0.5l0-0.7l0.4-0.6l0.6-0.4l0.7,0l0.6,0.4l0.5-0.2l0.8,0l0.7-0.1l0.4-0.6
	l-0.3-0.5l-1.9-1.3l-1.5-1.7l-0.3-0.6l-0.1-0.5l0-0.4l0-0.3l-0.2-0.4L58.8,49l-0.3-0.1l-0.2-0.2l0.1-0.3l0-0.2l-0.1-1.6L58.2,46
	l-0.5-1l-0.3-0.8l0.1-0.3l0.4-0.2l-0.2-0.5l-1-1.3L55.6,41l-0.5-0.7l-1-3L53.7,37l-0.5-0.1l-0.3-0.2l-0.1-0.8l0.2-0.5l0.4-0.5
	l0.5-0.4l0.5-0.1l-0.1-0.5l0.1-0.4l0.2-0.2l0.3-0.1l-0.1-0.5l-0.8-1.5l0-0.2l0.5-0.7l-0.3-0.3l-0.4-0.2l-0.4-0.3L53,28.8l0-0.2
	l0.2,0.2l0.2-0.1l0.2-0.6l0-0.4l-0.5-1.9L53,25.5l0-0.3l0.3-0.5l0.3-0.2l0.3-0.1l2.4-0.4l0.6,0.1l1.6,0.7l0.6,0.1l0.9,0.5l0.6,0.9
	l0.6,0.7l1-0.1l3.8-2.9l2.9-1.6l0.8-0.9l0.8-2.4l0.4-0.7l1-1.2l0.6-0.5l0.5-0.1l5.9,0.1l1.4,0.5l0.5,0.1l6.7-0.5l2.2-0.9l1.1-0.3
	l1.1,0.1l3.9,1.4l4.6,0.4l3.2,0.3l2-0.3l5,1.3l1.6,0.1l0.7,0.2l1.4,1.5l0.7,0.4l5.5,0.6l0.3,0.2l0,0.3l-0.1,0.3l0,0.4l0.3,0.4
	l0.3,0.2l5.2,0.5l4.4,2.2l1.5,0.3l2.4-0.7l2.1,0.2l1,0.3l0.6,0.4l0.1,0.6l-0.1,0.8l-0.1,1l0.2,0.8l0.3,0.3l0.5,0.1l0.6,0l0.7,0.2
	l-0.1,0.7l-0.4,0.8l-0.2,0.6l0.3,0.3l0.5,0l1-0.3l1.4,0.3l0.5,0l0.5-0.2l0.7-0.7l0.5-0.2l0.8,0.1l0,0l2.5,1.1l1.3,0.1l0.4,0.2
	l0.3,0.8l-0.2,0.9l-0.9,1.9l0,0.1l0.1,0.2l0.3,0.4l0.4,0.3l0.3,0.2l0.4-0.1l0.2-0.2l1.2-1.5l0.1-0.2l0.1-0.5l0-0.4l0-0.4l0-0.5
	l0.2-0.8l0.3-0.6l0.5-0.4l0.5-0.1l0.5,0.3l1.4,1.6l0.4,0.3l0.4,0.1l2.3,0.1l0.5-0.1l0.6-0.5l0.8-1.4l0.5-0.7l0.5-0.4l0.6-0.2l0.5,0
	l0.3,0.4l0.1,0.4l0,0.3l0,0.4l0.2,0.4l0.3,0.3l0.7,0.5l0.3,0.3l0.1,0.4l0.2,1.1l0.1,0.3l0.3,0.2l0.3-0.2l0.6-0.6l1.2-0.8l0.6-0.2
	l0.6,0l2.1,0.5l0.6,0.3l0.2,0.5l0,0.8l0.3,2.1l0.1,0.5l0.2,0.4l0.4,0.2l0.3-0.2l0.3-0.2l0.3,0.1l0.2,0.5l0.1,0.7l0.2,0.4l0.4-0.5
	l0.1-0.6l0-1.4l0.1-0.7l0.5-1l0.7-0.8l0.8-0.6l0.8-0.4l0.7-0.1l1.5,0l0.6-0.2l0.5-0.5l0.6-1.2l0.5-0.4l0.5-0.2l0.5,0l1,0.3l0.6,0.4
	l0.3,0.5l0.5,1.4l0.8,1.2l0.3,0.6l0.1,1l-0.2,1l0.2,0.5l0.4,0.3l0.5,0.6l0.3,0.7l0.2,0.9l0.3,0.7l0.5,0.3l0.5-0.2l0.3-0.3l0.7-0.5
	l0.6-0.2l1,0.4l0.5,0l0.4-0.6l0.4-0.9l0.2-0.4l0.3-0.2l0.6-0.1l0.6-0.2l0.4-0.4l0.4-0.5l0.5-0.4l0.5-0.2l0.6-0.1l0.5,0.1l0.4,0.3
	l0.4,0.7l0.2,0.6l0.3,0.4l2.2,0.4l0.4-0.1l0.2-0.3l0.4-0.7l0.3-0.2l0.2,0l0.4,0.3l0.3,0l1.5-0.7l0.6-0.2l3.3-0.1l0.7,0.2l0.7,0.5
	l0.9,1.2l0.3,0.4l1.2,0.6l0.3,0.3l0.1,0.3l0.1,0.3l0,0.3l0,0.4l0,0.3l-0.2,0.8l-0.1,0l0.2,0.4l0.7,1l0.3,0.3l0.4,0.1l0.7,0l0.3,0.1
	l0.4,0.3l0.5,0.8l0.4,0.1l0.3,0l0.3,0.1l0.3,0.2l0.3,0.3l0.2,0.4l0.3,0l0.1-0.2l0,0l0-0.9l0.1-0.1l0.4-0.8l0.1-0.5l0.7-0.5l0.7-0.7
	l-0.1-1.1l0.3-0.1l0-0.2l-0.2-0.2l-0.1-0.2l-0.2-1.1l-0.1-0.3l-0.3-0.2l-0.3,0l-0.2-0.1l-0.1-0.5l0-0.5l0.2-0.3l0.3-0.1l0.3,0l0-0.3
	l-0.3-0.1l-0.3-0.2l-0.2-0.3l-0.1-0.5l0.1-0.3l-0.1-0.3l-0.2-0.3l-0.3-0.2l0.2-0.2l0.1-0.2l0.2-0.4l-0.4-0.2l-0.8-0.2l-0.3-0.4
	l0-0.2l0.1-0.1l0.1-0.1l0.1-0.1l0.2,0l0-0.2l-0.2-0.1l-0.5-0.4l0-0.3l0.7-0.6l0.3-0.1l-0.1-0.4l-0.1-0.1l0.1-0.1l0.2-0.3l0.2-0.2
	l-0.1-0.5l0.3-0.8l-0.1-0.5l0.3-0.1l0.7,0l0.3-0.1l0.1-0.4l0-0.5l0.1-0.4l0.3-0.3l0-0.3l-0.2,0l-0.5-0.2l0.3-0.3l0.5-0.4l0.4-0.4
	l0-0.6l-0.2-0.4l0-0.1l0.1-0.1l0.2-0.3l0.5-0.7l0.1-0.1l0.1-0.1l0.1-0.3l0.1-0.3l0.5-0.3l0.1-0.3l0-0.4l0.1-0.3l0.2,0l0.7,0.1
	l0.2-0.1l0.2-0.2l0.3-0.4l0-0.3l-0.1-0.1l-0.1-0.2l0-0.1l0.7-0.3l0.3-0.2l0.3-0.2l0.3-0.3l0.2-0.3l0-0.1l0-0.2l0-0.2l0.2-0.2
	l0.2-0.2l0.1,0l0.1,0l0.2,0.2l0.6,0l0.2-0.5l-0.2-0.5L227,18l0.1-0.2l0-0.2l0.1-0.2l0.1-0.2l-0.1-0.7l0.4-0.4l0.6-0.2l3.2-0.2
	l0.9,0.1l0.6,0.3l1.1,0.9l0.6,0.2l0.6-0.2l0.4-0.6l0.4-0.8l0.5-0.6l1.8-0.8l2.2,0l4.1,0.8l2.7-0.2l1.4-0.2l0.8,0.2l0.6,0.5l0.1,0.6
	l0,0.7l0.1,0.6l0.4,0.3l0.4-0.1l1.3-0.7l0.8-0.1l1.4,0.3l0.4,0l3.2-1.6l1-0.8l0.7-1.5l0.2-2.3l0.2-0.7l0.2-0.2l0.3-0.2l0.3-0.2
	l0.1-0.4l-0.1-0.3l-0.5-0.8l-0.1-0.4l0.3-1.3l1-0.2l2,0.7l1.1-0.3l4.7,2.3l0.7,0l1.4-0.4l0.7,0l0.4,0.2l0.7,0.6l0.4,0l0.4-0.2
	l2.4-2.2l0.4-0.2l0.2,0l0.3,0.2l0.2-0.1l0.2-0.2l0.3-0.6l0.2-0.1l0.4-0.2l0.3-0.3l0.6-0.8l0.4-0.3L280.5,4.1z M205.7,233.7l-0.3,0.6
	l-0.1,0.3l-0.1,0.2l-0.1,0.3l0,0.4l0.1,0.3l0.3,0.6l1.8,2l0.5,0.3l0.6,0.1l1.9,0.8l1,0.9l0.7,1l1.5,3.2l0.2,0.3l0.3,0.1l0.2-0.1
	l0.6-0.6l0.1-0.2l0.1-0.2l0.2-0.3l0.2-0.3l0.1-0.4l0-0.3l-0.1-0.1l-0.2-0.1l-0.3-0.3l-1.6-1.5l-0.2-0.5l0-0.3l0.1-0.3l0.1-0.3l0-0.3
	l-0.1-0.4l-0.1-0.2l-0.1-0.2l-0.2-0.3l-1.6-0.9l-0.2-0.5l0-0.8l-0.1-0.8l-0.2-0.7l-0.3-0.5l-0.2,0.9l-0.1,0.9l-0.2,0.6l-0.5-0.1
	l-0.4-0.4l-0.4-0.7l-0.2-0.8l0.2-0.7l-0.1-0.2l-0.2-0.2l-0.2-0.1l-0.3,0L205.7,233.7z M312.3,236l-0.1,0.6l0,1l0.2,0.6l0.4,0.5
	l1,0.9l-1,1.2l0,0.2l-0.1-0.1l-0.2-0.4l0.1-0.8l0-0.3l-0.2-0.4l-0.3-0.3l-0.3-0.1l-0.1,0.4l-0.1,0.4l-0.3,0.2l-0.7-0.1l0,0.3
	l0.5,0.3l0.3,0.1l0.3,0l0.2,0.2l0.3,0.9l0.1,0.4l0,0.3l-0.3,0l-0.5-0.1l-0.1,0l-0.3,0.1l-0.1,0l-0.1-0.2l-0.1-0.3l-0.1-0.3l0-0.1
	l-0.3-0.1L310,241l-0.1,0.2l-0.3,0.1l0,0.1l-0.1,0.1l-0.1,0l-0.1-0.1l-0.1-0.2l-0.1-0.2L309,241l-0.4-0.4l-0.7-1.6l-0.3-0.4
	l-0.5-0.1l-1.6-0.6l-0.3,0l-0.4,0.2l-0.3,0.1l-0.6,0l-0.3,0l-0.1-0.1l-0.2-0.4l-0.5-0.2l-0.5-0.1l-0.4,0.1l-0.4,0.4l-0.3,0.4
	l-0.4,0.2l-0.5-0.2l-0.7,0l0,0.2l0.3,0.3l0.2,0.3l1.3,2.2l0.3,0.2l1.2,0.7l0.3-0.3l0.1-0.6l0-1.3l1.1,0.4l0.2,0.2l0,1l-0.1,0.4
	l-0.3,0.3l1,1.2l0.3,0.6l-0.5,0.2l0,0.2l0,0.1l0.2,0.2l-0.2,0.3l0.5,0l0.3-0.3l0.2-0.3l0.3-0.2l0.4,0.2l0.2,0.3l0.1,0.3l0.2,0.2
	l0.1,0.2l0.4,0.3l0.4,0.1l0.2-0.4l-0.1-0.5l-0.2-0.4l0-0.3l0.5-0.2l-0.1-0.4l-0.2,0l-0.3,0l-0.3-0.1l-0.5-0.4l-0.1-0.3l0.3-0.1
	l1.3,0l0.5,0.1l0.5,0.3l1.2,1.5l0.9,0.4l1.5,1.3l0,0.2l-0.3,0.3l-0.3,0.2l-0.4,0l-0.5-0.2l0.1,0.6l0.3,0.5l0.7,0.7l0.3-0.3l0.4-0.1
	l0.4-0.2l0.1-0.7L314,247l-0.2-0.4l-0.3-0.3l-1.6-1.2l-0.3-0.1l-0.1-0.1l0-0.2l0-0.2l0.1-0.1l0.1,0l0.2,0.2l0.1,0l0.2,0.1l0.2,0.1
	l0.2,0.2l0.1,0.2l0.2-0.3l1.2,0.3l0.5,0.2l-0.3,0.4l0.3,0.5l0.3-0.1l0.9-1.5l0.1,0.2l0,0.6l0.1,0.5l0.2,0.2l0.3,0.2l0.3,0.1l0.3,0
	l0.1-0.2l0.1-0.6l0.1-0.2l0.5-0.1l0.4,0.3l0.7,0.9l-0.5,0.2l-0.2,0.1l0.4,0.4l0.6,0.3l0.4,0.4l-0.1,0.8l-0.2,0.1l-0.6,0.3l-0.1,0.2
	l0,0.5l-0.2,0.6l-0.1,0.4l0.7-0.8l0,0.3l0,0.2l-0.1,0.1l-0.1,0.1l0.2-0.1l0.2-0.1l0.1-0.1l0.1-0.3l0.2,0l0,0.9l0.1,0.3l0.2-0.4
	l0-0.9l0.2-0.8l0.4-0.5l0.5-0.2l0.5,0.2l-0.2,0.2l-0.3,0.6l0.5,0.9l0.3,0.4l0.3-0.1l0.4-0.8l0.2-0.5l0.1-0.3l0.2-0.1l0.4,0.1l0.4,0
	l0.2-0.4l-0.1-0.4l-0.3-0.4l-0.6-0.5l0-0.2l1.9,0.6l0.3,0.2l0.1,0.4l0.1,0.2l0,0.3l-0.1,0.6l-0.1,0.2l-0.4,0.6l-0.2,0.2l-0.2,0.2
	l-0.3,0.2l-0.3,0.1l-0.3,0.1l-0.2,0.2l-0.1,0.9l-0.2,0.2l-0.3,0.2l-0.2,0.4l-0.1,0.4l-0.1,0.3l-0.3,0.3l-0.8,0.6l0,0.3l1.2-0.3
	l1.1-0.6l2.6-2.7l0.4-0.3l1.1-0.3l0.4-0.4l0.7-0.9l0.2,0.5l0.1,0.4l0,0.4l-0.2,0.3l-0.2-0.1l-0.8,0.2l-0.1,0.1l-0.3,0.1l-0.3,0.2
	l-0.2,0.3l-0.1,0.4l0,0.5l-0.3,0.7l-0.1,0.5l0.7-0.3l0.7-0.5l0.7-0.3l0.7,0.2l0.4,0.8l-0.3,0.8l-0.5,0.8l-0.4,0.7l0.6-0.2l0.5,0.1
	l1,0.3l0.6-0.1l1-0.6l0.6-0.1l0,0.2l-0.2,0.3l-0.4,0.5l-0.2,0.4l0.7,0.1l0.2,0.1l0.2,0.2l0.3,0.6l0.2,0.2l0.4,0.1l1.4-0.2l0.3,0.2
	l0.8,1.5l0.3,0.2l0.3,0.2l0.2,0.2l0.1,0.5l0.2,0.5l0.7,0.6l0.2,0.4l0.6,2.6l0.1,0.1l0.1,0.1l-0.1,0.4l-0.1,0.2l-0.3,0.3l-0.2,0.2
	l-0.3,0.3l-0.9,0.3l-0.3,0.2l0,0.3l0.4,0.3l0.8,1.4l0.4,0.4l1.6,1.1l0.3,0l0.3-0.2l0.5-0.2l0.4,0l0.5,0.1l0.4,0.2l0.2,0.3l0.5,0.3
	l3.1,0.9l0.3,0.2l0.4,0.4l0.4,0.4l0.5,0.2l0.4-0.1l0.4-0.3l0.5-0.7l-0.4-0.5l-0.4-0.2l-0.5-0.1l-0.5-0.2l-0.2-0.3l-0.2-0.3l-0.2-0.3
	l-0.3-0.1l-0.3,0l-0.2-0.2l-6.1-7.8l-1.2-1.2l-0.2-0.4l-0.7-0.9l-0.6-1.1l-0.2-0.4l-0.2-0.1l-0.2-0.1l-0.2-0.2l-0.1-0.5l-0.4-0.7
	l-0.1-0.1l-0.1-0.3l-1-1.5l-0.3-0.6l-0.4-1.4l-0.3-0.6l-0.2-0.3l-0.3-0.3l-0.3-0.2l-0.3,0l-0.2,0.2l-0.1,0.3l-0.1,0.3l-0.2,0.3
	l-0.2,0.2l-0.2,0.2l-0.3,0.1l-0.3,0.1l-0.1-0.2l0-0.4l0.4-2.1l0,0l-0.1-0.1l-0.1-0.2l0-0.2l0,0l0.3-0.2l0.1,0l0.1,0l0.1-0.2l0-0.2
	l-0.2-0.1l-0.1,0l-0.3-0.2l-0.1-0.1l-0.2-0.3l-0.1-0.4l-0.1-0.9l-0.1-0.7l-0.2-0.9l-0.3-0.8l-0.3-0.3l-0.4,0.1l-0.1,0.4l-0.1,0.4
	l-0.2,0.2l-0.2-0.1l-0.8-0.7l-0.2-0.5l-0.4-0.6l-0.5-0.5l-0.5-0.3l0.2-0.4l0.3-0.2l1-0.3l0.7,0l0.2,0.1l0.4,0.5l0.2,0.1l0.3-0.3
	l0-0.6l-0.3-0.7l-0.2-0.5l-0.8-0.7l-1.2-0.7l-1.2-0.1l-0.8,0.9l-0.1,0.8l0.2,0.8l0.2,0.7l0.1,0.7l-0.1,0.5l-1.3,2.9l-0.5,0.6
	l-1.1-0.4l-0.8,1.1l-0.6-0.1l0.2-0.9l-0.3-0.4l-0.6-0.1l-0.7,0.1l-0.3-0.2l0.1-0.5l0.3-0.5l0.3-0.3l0.4,0.1l0.3,0.3l0.2,0.1l0.2-0.5
	l-0.5-0.4l-0.3-0.6l0-0.7l0.2-0.7l0.9-0.8l0.3,0l0,0.2l-0.1,0.2l-0.1,0.2l0.1,0.7l0.2-0.4l0.3-0.7l0.3-0.3l0.1,0.4l0.4,0.8l0.4,0.5
	l0.1-0.5l0-0.4l0.2-0.5l0-0.4l0-1.1l-0.1-0.4l-0.3-0.4l-0.4-0.3l-0.3-0.1l-0.2,0.2l-0.1,0.3l-0.1,0.6l-0.8,0.7l-1-0.2l-1.9-1.4
	l-1.6-0.8l-0.2,0l-0.1,0.2l-0.2,0.2l-0.2,0.2l0,0.3l0.2,0.2l0.6,0l0.3,0.2l0,0.5l-0.1,1l-0.2,1l-0.3,0.4l-0.3-0.2l-0.1-0.4l0-0.9
	l-0.1-0.5l-0.1-0.3l-1.5-2.7l-0.7-1l-0.9-0.7l-0.5-0.1L312.3,236z M196.7,262.6l-2.1,0.8l1.4-0.7l0.6-0.4l0.2-0.4l0.1-0.4l0.4-0.1
	l0.4,0l0.4-0.1l0.4-0.3l0.8-0.8l0.5-0.4l4.3-3.8l1.4-0.7l-5.9,5.5L196.7,262.6z M272.4,245.5l3.8,0.4l1.8-0.4l0.8,0l0.9,0.6l1.1-0.5
	l0.6-0.1l0.3,0.4l0.3,0.3l1.2-0.1l0.3,0.5l-0.4,0.5l-11.2-1.6l0.2-0.2l0.1,0L272.4,245.5z"/>
</svg>
