<?xml version="1.0" standalone="no"?>
<!DOCTYPE svg PUBLIC "-//W3C//DTD SVG 20010904//EN"
 "http://www.w3.org/TR/2001/REC-SVG-20010904/DTD/svg10.dtd">
<svg version="1.0" xmlns="http://www.w3.org/2000/svg"
 width="197.000000pt" height="197.000000pt" viewBox="0 0 197.000000 197.000000"
 preserveAspectRatio="xMidYMid meet">
<metadata>
Created by potrace 1.11, written by Peter Selinger 2001-2013
</metadata>
<g transform="translate(0.000000,197.000000) scale(0.100000,-0.100000)"
fill="#000000" stroke="none">
<path d="M899 1940 c22 -37 20 -98 -7 -166 -11 -27 -140 -328 -287 -669 -147
-341 -289 -672 -316 -734 -69 -161 -109 -209 -213 -261 l-59 -30 279 1 c176 0
271 4 257 9 -30 12 -63 67 -63 105 0 84 49 160 123 191 36 15 80 18 334 20
l292 2 48 26 c94 51 133 155 124 331 l-1 30 -19 -31 c-28 -45 -95 -99 -143
-114 -31 -9 -122 -14 -315 -15 -150 -1 -273 0 -273 2 0 3 150 352 175 408 8
17 64 147 125 290 62 143 113 261 114 263 2 1 20 -37 41 -85 20 -49 43 -101
50 -118 8 -16 70 -163 140 -325 122 -286 138 -323 170 -392 178 -398 206 -491
163 -551 -11 -16 -30 -32 -42 -37 -13 -5 54 -9 172 -9 l192 -1 0 56 c0 45 -6
63 -29 98 -16 23 -84 170 -151 327 -67 156 -128 298 -135 314 -68 152 -394
917 -400 940 -15 53 -13 89 7 123 l20 32 -196 0 -196 0 19 -30z"/>
</g>
</svg>
