<?xml version="1.0" standalone="no"?>
<!DOCTYPE svg PUBLIC "-//W3C//DTD SVG 20010904//EN"
 "http://www.w3.org/TR/2001/REC-SVG-20010904/DTD/svg10.dtd">
<svg version="1.0" xmlns="http://www.w3.org/2000/svg"
 width="297.000000pt" height="297.000000pt" viewBox="0 0 297.000000 297.000000"
 preserveAspectRatio="xMidYMid meet">
<metadata>
Created by potrace 1.11, written by Peter Selinger 2001-2013
</metadata>
<g transform="translate(0.000000,297.000000) scale(0.100000,-0.100000)"
fill="#000000" stroke="none">
<path d="M8 2878 c-7 -24 -2 -2102 6 -2143 32 -168 193 -296 375 -300 191 -4
377 100 549 309 38 45 89 146 111 220 73 240 37 535 -99 806 -70 139 -199 318
-306 425 l-25 25 -38 -30 c-117 -95 -288 -88 -394 15 -66 64 -98 157 -85 245
16 104 73 186 160 231 61 32 181 32 258 -1 52 -22 161 -89 188 -116 7 -7 34
-30 59 -51 119 -96 280 -279 368 -417 114 -179 210 -433 231 -611 3 -27 9 -66
13 -85 8 -39 6 -302 -3 -369 -7 -59 -15 -112 -21 -141 -3 -14 -8 -39 -11 -57
l-6 -31 109 52 c135 66 325 134 418 150 17 3 48 9 70 13 51 9 286 10 345 1
222 -35 421 -155 557 -338 46 -62 113 -186 113 -209 0 -6 3 -11 8 -11 9 0 7
1745 -2 1820 -29 228 -77 342 -184 441 -81 74 -190 120 -367 155 -22 4 -569 9
-1216 11 -958 3 -1177 2 -1181 -9z m1146 -166 c17 -9 35 -23 39 -30 5 -7 13
-9 19 -6 7 4 8 2 4 -4 -4 -7 -3 -12 2 -12 9 0 61 -100 67 -130 2 -8 4 -15 5
-15 1 0 3 -9 4 -20 2 -11 6 -35 11 -54 18 -80 -1 -372 -24 -371 -3 1 -35 46
-71 101 -59 91 -97 136 -289 339 -33 36 -61 68 -61 73 0 17 45 74 77 97 19 14
41 31 49 38 8 7 14 11 14 9 0 -3 12 -2 28 2 37 11 89 4 126 -17z m265 -759
c42 -21 82 -44 89 -50 7 -7 24 -16 38 -19 13 -3 24 -10 24 -14 0 -4 8 -10 18
-13 34 -12 335 -204 352 -226 3 -3 32 -26 65 -51 33 -25 76 -58 95 -75 42 -36
247 -242 275 -276 40 -50 125 -172 122 -176 -2 -2 -30 9 -63 23 -55 24 -139
52 -209 69 -141 34 -352 19 -514 -36 -31 -11 -64 -21 -74 -24 -9 -2 -21 -6
-25 -9 -4 -3 -31 -14 -60 -25 l-52 -21 7 63 c10 80 10 317 1 382 -9 60 -42
189 -64 248 -20 52 -24 61 -74 170 -22 49 -40 91 -40 93 0 9 15 3 89 -33z"/>
<path d="M2007 714 c-1 -1 -37 -4 -80 -8 -72 -6 -122 -16 -262 -50 -187 -46
-447 -168 -685 -321 -87 -55 -320 -228 -316 -233 6 -6 1984 -5 1993 1 20 12 0
187 -30 267 -80 217 -264 330 -555 343 -35 2 -64 2 -65 1z"/>
</g>
</svg>
